<svg width="2405" height="1724" viewBox="0 0 2405 1724" fill="none" xmlns="http://www.w3.org/2000/svg">
<path d="M213.27 1717.48C213.27 1717.48 -192.92 1370.65 115.86 1041.93C444.62 691.93 153.35 242.65 599.62 61.37C1082.09 -134.63 1206.23 210.58 1408.22 157.57C1811.08 51.85 2322.09 103.91 2237.06 617.43C2130.33 1262.05 2568.22 1179.83 2308.15 1719.63L213.27 1717.48Z" fill="#EBF3FA"/>
<path d="M1408.22 672.91C1408.22 672.91 1475.63 387.16 1703.07 355.75C1703.07 355.75 1747.32 350.31 1762.07 399.04C1776.82 447.77 1688.82 448.12 1634.43 467.72C1580.04 487.32 1453.25 570.41 1408.22 672.91Z" fill="#D2E0FF"/>
<path d="M1403.05 619.44C1403.05 619.44 1379.41 382.75 1545.38 298.74C1545.38 298.74 1577.85 282.92 1601.98 316.37C1626.11 349.82 1558.79 373.27 1522.29 402.62C1485.79 431.97 1410.54 529 1403.05 619.44Z" fill="#D2E0FF"/>
<g opacity="0.8">
<path opacity="0.8" d="M891.62 840.34C891.62 840.34 989.17 785.71 943.62 711.57C943.62 711.57 907.21 666.05 868.19 654.34C868.19 654.34 889 764.9 868.19 767.5C847.38 770.1 853.88 642.63 853.88 642.63C853.88 642.63 751.13 593.21 710.81 597.11C710.81 597.11 774.54 705.11 753.73 702.47C732.92 699.83 661.4 590.61 661.4 590.61C661.4 590.61 556.05 571.1 539.14 633.53C522.23 695.96 549.54 727.18 565.14 731.08C580.74 734.98 680.9 733.68 678.3 746.69C675.7 759.7 608.06 780.5 570.3 768.8C570.3 768.8 611.93 871.55 666.55 866.35C721.17 861.15 738.09 827.35 771.91 824.73C805.73 822.11 830.44 831.23 813.53 840.34C796.62 849.45 739.39 843.34 712.08 866.54C684.77 889.74 662.65 904.07 713.38 914.47C764.11 924.87 855.15 918.38 873.38 879.36L891.62 840.34Z" fill="#AEC3FF"/>
<path opacity="0.8" d="M587.26 653C587.26 653 860.4 741.45 891.62 840.3C891.62 840.3 890.32 884.52 917.62 935.24V954.75C917.62 954.75 889.01 888.42 873.4 879.32C873.41 879.36 934.54 793.51 587.26 653Z" fill="#AEC3FF"/>
<path opacity="0.8" d="M917.63 935.28C917.63 935.28 959.75 999.28 935.74 1077.11L924.9 1074.2C924.9 1074.2 935.42 988.44 913.38 945.31C891.34 902.18 917.63 935.28 917.63 935.28Z" fill="#AEC3FF"/>
</g>
<g opacity="0.5">
<path opacity="0.5" d="M945.81 1281.39C945.81 1281.39 1009.71 1089.94 858.81 1046.24C858.81 1046.24 754.88 1029.69 688.55 1061.46C688.55 1061.46 850.64 1183.81 826.01 1212.56C801.38 1241.31 655.23 1063.21 655.23 1063.21C655.23 1063.21 458 1122 408.92 1176.22C408.92 1176.22 625.17 1242.96 594.22 1264.76C563.27 1286.56 335 1227.58 335 1227.58C335 1227.58 170.63 1329.5 223.9 1433.42C277.17 1537.34 351.55 1545.83 377.13 1532.08C402.71 1518.33 534.88 1394.93 547.2 1415.46C559.52 1435.99 494.49 1545.94 429.9 1576.13C429.9 1576.13 610.31 1662.78 676.9 1589.47C743.49 1516.16 725.03 1450.47 767.03 1405.91C809.03 1361.35 853.09 1343.49 841.57 1376.19C830.05 1408.89 746.19 1470.19 737.93 1534.42C729.67 1598.65 717.51 1644.58 797.93 1596.85C878.35 1549.12 991.99 1429.85 968.93 1355.61L945.81 1281.39Z" fill="#D2E0FF"/>
<path opacity="0.5" d="M311.86 1401C311.86 1401 784.04 1187.3 945.81 1281.38C945.81 1281.38 1000.81 1348.8 968.89 1355.6C968.89 1355.61 946.25 1166.72 311.86 1401Z" fill="#D2E0FF"/>
</g>
<path d="M1644.11 1301.84C1644.11 1301.84 1662.93 1187.34 1751.37 1205.56C1751.37 1205.56 1808.66 1225.01 1833.88 1258.94C1833.88 1258.94 1718.64 1277.71 1723.46 1298.94C1728.28 1320.17 1850.36 1268.77 1850.36 1268.77C1850.36 1268.77 1934.91 1351.56 1945.36 1392.29C1945.36 1392.29 1817.49 1368.29 1827.36 1387.64C1837.23 1406.99 1969.16 1438.22 1969.16 1438.22C1969.16 1438.22 2025.43 1534.13 1970.49 1572.7C1915.55 1611.27 1875.43 1595.64 1866.1 1581.79C1856.77 1567.94 1822.65 1469.79 1810.87 1476.89C1799.09 1483.99 1802.7 1557.38 1827.46 1590.05C1827.46 1590.05 1712.46 1585.75 1698.25 1530.61C1684.04 1475.47 1711.04 1447.01 1701.62 1413.09C1692.2 1379.17 1674.62 1358.28 1671.68 1377.99C1668.74 1397.7 1694.97 1451.39 1681.97 1486.25C1668.97 1521.11 1662.82 1547.75 1634.74 1501.93C1606.66 1456.11 1580.82 1364.93 1612.46 1333.4L1644.11 1301.84Z" fill="#BBD0FF"/>
<path d="M1934.45 1532.63C1934.45 1532.63 1751.6 1297.36 1644.11 1301.84C1644.11 1301.84 1601.41 1318.74 1542.26 1310.02L1523.26 1316.91C1523.26 1316.91 1598.1 1321.39 1612.51 1333.4C1612.47 1333.4 1674.63 1243.41 1934.45 1532.63Z" fill="#BBD0FF"/>
<path d="M1542.26 1310C1542.26 1310 1464.95 1291.5 1397.46 1342.46L1404.13 1352C1404.13 1352 1484.13 1311.43 1533.98 1317.68C1583.83 1323.93 1542.26 1310 1542.26 1310Z" fill="#BBD0FF"/>
<path d="M1609.73 827.63C1609.73 827.63 1490.49 760.86 1546.14 670.23C1546.14 670.23 1590.66 614.59 1638.35 600.23C1638.35 600.23 1612.91 735.37 1638.35 738.55C1663.79 741.73 1655.84 586 1655.84 586C1655.84 586 1781.44 525.58 1830.73 530.35C1830.73 530.35 1752.83 662.35 1778.26 659.13C1803.69 655.91 1891.15 522.4 1891.15 522.4C1891.15 522.4 2019.93 498.55 2040.6 574.87C2061.27 651.19 2027.88 689.34 2008.8 694.11C1989.72 698.88 1867.3 697.29 1870.48 713.19C1873.66 729.09 1956.33 754.53 2002.48 740.19C2002.48 740.19 1951.6 865.79 1884.83 859.43C1818.06 853.07 1797.38 811.73 1756.05 808.55C1714.72 805.37 1684.5 816.55 1705.17 827.63C1725.84 838.71 1795.79 831.28 1829.17 859.63C1862.55 887.98 1889.59 905.51 1827.58 918.23C1765.57 930.95 1654.28 923 1632.02 875.3L1609.73 827.63Z" fill="#D2E0FF"/>
<path d="M1981.77 598.69C1981.77 598.69 1647.89 706.8 1609.77 827.63C1609.77 827.63 1611.36 881.69 1577.98 943.7V967.54C1577.98 967.54 1612.98 886.46 1631.98 875.33C1632 875.33 1557.27 770.4 1981.77 598.69Z" fill="#D2E0FF"/>
<path d="M1577.94 943.7C1577.94 943.7 1526.45 1021.89 1555.8 1117.06L1569.05 1113.51C1569.05 1113.51 1556.19 1008.67 1583.13 955.95C1610.07 903.23 1577.94 943.7 1577.94 943.7Z" fill="#D2E0FF"/>
<path d="M1701.18 496.98H809.89V1715.84H1701.18V496.98Z" fill="#739AF0"/>
<path d="M1663.21 529.87H847.87V1682.25H1663.21V529.87Z" fill="#F3FAFF"/>
<path d="M1086.5 497V538.5C1086.5 543.95 1087.57 549.347 1089.66 554.383C1091.74 559.419 1094.8 563.994 1098.65 567.848C1102.51 571.702 1107.08 574.759 1112.12 576.844C1117.15 578.929 1122.55 580.001 1128 580H1350.81C1356.26 579.999 1361.66 578.924 1366.69 576.837C1371.72 574.75 1376.3 571.692 1380.15 567.837C1384 563.983 1387.06 559.407 1389.14 554.371C1391.22 549.336 1392.29 543.939 1392.29 538.49V497H1086.5Z" fill="#2B478B"/>
<path d="M1043.39 1519.13H942.51V1529.34H1043.39V1519.13Z" fill="#AEC3FF"/>
<path d="M1167.63 1519.13H1066.75V1529.34H1167.63V1519.13Z" fill="#AEC3FF"/>
<path d="M1082.41 1541.79H942.51V1552H1082.41V1541.79Z" fill="#AEC3FF"/>
<path d="M1059.66 669.09H1096.59C1106.86 669.09 1114.82 671.98 1120.13 677.29C1124.63 681.79 1127.05 688.13 1127.05 695.98C1127.05 708.98 1120.05 717.21 1109.75 720.98L1129.48 749.83H1108.71L1091.17 724H1077.44V749.85H1059.66V669.09ZM1095.44 708.33C1104.09 708.33 1109.05 703.71 1109.05 696.67C1109.05 689.06 1103.75 685.13 1095.05 685.13H1077.4V708.33H1095.44Z" fill="#8C9DF4"/>
<path d="M1141.83 715.25V669.09H1159.6V714.79C1159.6 727.94 1166.18 734.79 1177.02 734.79C1187.86 734.79 1194.45 728.21 1194.45 715.41V669.09H1212.22V714.67C1212.22 739.14 1198.49 751.14 1176.79 751.14C1155.09 751.14 1141.83 739 1141.83 715.25Z" fill="#8C9DF4"/>
<path d="M1230.34 669.09H1248.11V733.71H1288.38V749.87H1230.38L1230.34 669.09Z" fill="#8C9DF4"/>
<path d="M1301.77 669.09H1362.7V684.9H1319.42V701.29H1357.5V717.1H1319.42V734.1H1363.27V749.91H1301.77V669.09Z" fill="#8C9DF4"/>
<path d="M1373.55 738.1L1384.05 725.52C1391.32 731.52 1398.93 735.33 1408.17 735.33C1415.43 735.33 1419.82 732.44 1419.82 727.48C1419.82 722.98 1417.05 720.67 1403.55 717.21C1387.28 713.06 1376.78 708.56 1376.78 692.29C1376.78 677.63 1388.55 667.94 1405.05 667.94C1415.94 667.762 1426.55 671.395 1435.05 678.21L1425.82 691.59C1418.67 686.59 1411.63 683.59 1404.82 683.59C1398.01 683.59 1394.43 686.71 1394.43 690.86C1394.43 696.17 1397.89 697.86 1411.86 701.48C1428.24 705.75 1437.47 711.63 1437.47 725.94C1437.47 741.94 1425.24 750.94 1407.82 750.94C1395.21 751.008 1383.01 746.439 1373.55 738.1Z" fill="#8C9DF4"/>
<path d="M1467.59 768.92H1029.55V774.57H1467.59V768.92Z" fill="#8C9DF4"/>
<path d="M1581.65 958.09H1434.19V810.63H1581.65V958.09ZM1441.13 951.15H1574.7V817.58H1441.13V951.15Z" fill="#AFCDFB"/>
<path d="M1511.58 928.45C1510.05 928.446 1508.54 928.106 1507.16 927.452C1505.78 926.799 1504.55 925.849 1503.58 924.67L1458.08 869.67C1457.2 868.617 1456.53 867.399 1456.12 866.087C1455.71 864.776 1455.56 863.395 1455.68 862.026C1455.81 860.657 1456.2 859.326 1456.84 858.11C1457.49 856.894 1458.36 855.817 1459.42 854.941C1460.48 854.064 1461.7 853.407 1463.02 853.005C1464.33 852.604 1465.71 852.466 1467.08 852.601C1468.45 852.736 1469.78 853.14 1470.99 853.79C1472.2 854.44 1473.27 855.324 1474.14 856.39L1510.2 900L1575.48 790.42C1576.91 788.077 1579.21 786.393 1581.87 785.733C1584.54 785.074 1587.35 785.492 1589.71 786.897C1592.07 788.303 1593.78 790.582 1594.46 793.239C1595.15 795.896 1594.76 798.718 1593.38 801.09L1520.53 923.36C1519.68 924.794 1518.49 926.001 1517.07 926.88C1515.65 927.759 1514.04 928.284 1512.38 928.41C1512.11 928.44 1511.85 928.45 1511.58 928.45Z" fill="#F99746"/>
<path d="M1320.39 832.4H992.8V846.79H1320.39V832.4Z" fill="#AEC3FF"/>
<path d="M1294.71 896.66H992.8V911.05H1294.71V896.66Z" fill="#AEC3FF"/>
<path d="M1320.39 864.53H1231.09V878.92H1320.39V864.53Z" fill="#AEC3FF"/>
<path d="M1206.35 864.53H992.8V878.92H1206.35V864.53Z" fill="#AEC3FF"/>
<path d="M919.46 845.26L904.81 849.33L901.81 837.7L923.68 830.7H933.68V912.7H919.49L919.46 845.26Z" fill="#AEC3FF"/>
<path d="M943 907.54C943 906.515 943.304 905.514 943.873 904.662C944.442 903.81 945.251 903.146 946.198 902.754C947.144 902.362 948.186 902.26 949.191 902.459C950.195 902.659 951.118 903.153 951.843 903.877C952.567 904.602 953.061 905.525 953.26 906.529C953.46 907.534 953.358 908.576 952.966 909.522C952.574 910.469 951.91 911.278 951.058 911.847C950.206 912.416 949.205 912.72 948.18 912.72C946.806 912.72 945.489 912.174 944.517 911.203C943.546 910.231 943 908.914 943 907.54Z" fill="#AEC3FF"/>
<path d="M1582.79 1178.38H1435.33V1030.91H1582.79V1178.38ZM1442.28 1171.38H1575.85V1037.86H1442.28V1171.38Z" fill="#AFCDFB"/>
<path d="M1512.72 1148.74C1511.19 1148.74 1509.68 1148.4 1508.3 1147.74C1506.92 1147.09 1505.69 1146.14 1504.72 1144.96L1459.21 1089.96C1457.47 1087.83 1456.65 1085.1 1456.92 1082.36C1457.19 1079.62 1458.53 1077.1 1460.65 1075.35C1462.77 1073.6 1465.49 1072.75 1468.23 1073C1470.97 1073.25 1473.5 1074.57 1475.27 1076.68L1511.36 1120.34L1576.64 1010.77C1577.32 1009.56 1578.24 1008.5 1579.34 1007.64C1580.44 1006.79 1581.69 1006.17 1583.04 1005.81C1584.38 1005.45 1585.78 1005.37 1587.16 1005.56C1588.53 1005.75 1589.86 1006.22 1591.05 1006.93C1592.25 1007.64 1593.29 1008.58 1594.11 1009.7C1594.93 1010.82 1595.53 1012.09 1595.85 1013.44C1596.18 1014.8 1596.23 1016.2 1596 1017.57C1595.78 1018.94 1595.28 1020.25 1594.54 1021.43L1521.69 1143.7C1520.84 1145.14 1519.65 1146.34 1518.23 1147.22C1516.81 1148.11 1515.2 1148.63 1513.54 1148.76C1513.26 1148.73 1513 1148.74 1512.72 1148.74Z" fill="#F99746"/>
<path d="M901.15 1121.8L928.99 1098.12C940.07 1088.77 944.12 1083.57 944.12 1076.29C944.12 1068.29 938.46 1063.71 931.06 1063.71C923.66 1063.71 918.59 1067.71 912.35 1075.83L902.35 1067.98C910.08 1057.12 917.71 1050.98 932.14 1050.98C947.97 1050.98 958.82 1060.68 958.82 1075.35C958.82 1088.06 952.01 1094.87 937.82 1106.65L921.19 1120.51H959.65V1133H901.21L901.15 1121.8Z" fill="#AEC3FF"/>
<path d="M969.21 1127.86C969.21 1126.84 969.512 1125.84 970.079 1125C970.645 1124.15 971.45 1123.49 972.391 1123.1C973.333 1122.71 974.369 1122.61 975.368 1122.81C976.368 1123.01 977.285 1123.5 978.005 1124.22C978.725 1124.94 979.215 1125.86 979.412 1126.86C979.61 1127.86 979.506 1128.9 979.115 1129.84C978.724 1130.78 978.062 1131.58 977.214 1132.15C976.366 1132.71 975.369 1133.01 974.35 1133.01C973.674 1133.01 973.005 1132.88 972.381 1132.62C971.756 1132.36 971.189 1131.98 970.712 1131.5C970.234 1131.02 969.856 1130.45 969.598 1129.83C969.341 1129.21 969.209 1128.54 969.21 1127.86V1127.86Z" fill="#AEC3FF"/>
<path d="M1339.75 1052.68H995.51V1067.07H1339.75V1052.68Z" fill="#AEC3FF"/>
<path d="M1312.76 1116.94H995.51V1131.33H1312.76V1116.94Z" fill="#AEC3FF"/>
<path d="M1339.75 1084.81H1245.91V1099.2H1339.75V1084.81Z" fill="#AEC3FF"/>
<path d="M1219.91 1084.81H995.51V1099.2H1219.91V1084.81Z" fill="#AEC3FF"/>
<path d="M1582.79 1400.29H1435.33V1252.82H1582.79V1400.29ZM1442.28 1393.29H1575.85V1259.77H1442.28V1393.29Z" fill="#AFCDFB"/>
<path d="M1512.72 1370.65C1511.19 1370.65 1509.68 1370.31 1508.3 1369.65C1506.92 1369 1505.69 1368.05 1504.72 1366.87L1459.21 1311.87C1458.33 1310.82 1457.66 1309.6 1457.25 1308.29C1456.84 1306.98 1456.69 1305.6 1456.81 1304.23C1456.94 1302.86 1457.33 1301.53 1457.97 1300.31C1458.62 1299.09 1459.49 1298.02 1460.55 1297.14C1461.61 1296.26 1462.83 1295.61 1464.15 1295.21C1465.46 1294.8 1466.84 1294.67 1468.21 1294.8C1469.58 1294.94 1470.91 1295.34 1472.12 1295.99C1473.33 1296.64 1474.4 1297.52 1475.27 1298.59L1511.36 1342.25L1576.64 1232.68C1577.32 1231.47 1578.24 1230.41 1579.34 1229.56C1580.44 1228.7 1581.69 1228.08 1583.04 1227.72C1584.38 1227.36 1585.78 1227.28 1587.16 1227.47C1588.53 1227.66 1589.86 1228.13 1591.05 1228.84C1592.25 1229.55 1593.29 1230.49 1594.11 1231.61C1594.93 1232.73 1595.53 1234 1595.85 1235.35C1596.18 1236.71 1596.23 1238.11 1596 1239.48C1595.78 1240.85 1595.28 1242.16 1594.54 1243.34L1521.69 1365.61C1520.84 1367.05 1519.65 1368.25 1518.23 1369.13C1516.81 1370.02 1515.2 1370.54 1513.54 1370.67C1513.26 1370.64 1513 1370.65 1512.72 1370.65Z" fill="#F99746"/>
<path d="M1339.75 1274.59H995.51V1288.98H1339.75V1274.59Z" fill="#AEC3FF"/>
<path d="M1312.76 1338.85H995.51V1353.24H1312.76V1338.85Z" fill="#AEC3FF"/>
<path d="M1339.75 1306.72H1245.91V1321.11H1339.75V1306.72Z" fill="#AEC3FF"/>
<path d="M1219.91 1306.72H995.51V1321.11H1219.91V1306.72Z" fill="#AEC3FF"/>
<path d="M900.13 1340.25L909.85 1331.25C915.5 1337.91 921.85 1341.64 930.64 1341.64C938.44 1341.64 944.32 1336.9 944.32 1329.44C944.32 1321.64 937.2 1317.23 926.12 1317.23H919.68L917.42 1308.53L938.78 1285.81H904.53V1273.72H956.86V1284.11L934.86 1306.72C947.41 1308.53 958.15 1314.97 958.15 1329.21C958.15 1343.79 946.84 1354.21 930.46 1354.21C916.63 1354.15 906.79 1348.38 900.13 1340.25Z" fill="#AEC3FF"/>
<path d="M962.09 1349.12C962.09 1348.13 962.383 1347.16 962.932 1346.34C963.482 1345.52 964.263 1344.88 965.177 1344.5C966.09 1344.12 967.095 1344.02 968.065 1344.22C969.035 1344.41 969.926 1344.89 970.625 1345.58C971.325 1346.28 971.801 1347.17 971.994 1348.14C972.187 1349.11 972.088 1350.12 971.709 1351.03C971.331 1351.95 970.69 1352.73 969.868 1353.28C969.045 1353.83 968.079 1354.12 967.09 1354.12C965.764 1354.12 964.492 1353.59 963.554 1352.66C962.617 1351.72 962.09 1350.45 962.09 1349.12V1349.12Z" fill="#AEC3FF"/>
<path d="M1315.55 1551.74C1301.15 1551.7 1287.2 1546.72 1276.04 1537.61C1264.89 1528.51 1257.2 1515.84 1254.28 1501.74C1254.17 1501.19 1254.17 1500.62 1254.27 1500.07C1254.38 1499.52 1254.59 1498.99 1254.9 1498.52C1255.21 1498.05 1255.61 1497.65 1256.08 1497.34C1256.55 1497.02 1257.07 1496.8 1257.62 1496.69C1258.17 1496.58 1258.74 1496.58 1259.29 1496.68C1259.84 1496.79 1260.37 1497 1260.84 1497.31C1261.31 1497.62 1261.71 1498.02 1262.02 1498.49C1262.34 1498.96 1262.56 1499.48 1262.67 1500.03C1265.17 1512.15 1271.77 1523.05 1281.35 1530.89C1290.93 1538.74 1302.91 1543.05 1315.29 1543.11C1327.67 1543.17 1339.7 1538.97 1349.35 1531.22C1359.01 1523.47 1365.71 1512.64 1368.33 1500.54C1368.45 1499.99 1368.67 1499.47 1368.99 1499.01C1369.31 1498.54 1369.72 1498.15 1370.19 1497.84C1370.66 1497.54 1371.19 1497.33 1371.75 1497.23C1372.3 1497.13 1372.87 1497.14 1373.42 1497.26C1373.96 1497.37 1374.49 1497.6 1374.95 1497.92C1375.41 1498.24 1375.81 1498.65 1376.11 1499.12C1376.42 1499.59 1376.62 1500.12 1376.73 1500.67C1376.83 1501.22 1376.82 1501.79 1376.7 1502.34C1373.64 1516.3 1365.92 1528.8 1354.8 1537.78C1343.69 1546.76 1329.84 1551.68 1315.55 1551.74V1551.74Z" fill="#AEC3FF"/>
<path d="M1258.36 1482.34C1258.08 1482.34 1257.81 1482.31 1257.54 1482.26C1256.43 1482.04 1255.45 1481.39 1254.82 1480.46C1254.18 1479.52 1253.94 1478.37 1254.15 1477.26C1256.87 1463.3 1264.27 1450.68 1275.12 1441.49C1285.97 1432.29 1299.64 1427.07 1313.85 1426.69C1328.07 1426.3 1342 1430.77 1353.34 1439.36C1364.67 1447.95 1372.75 1460.15 1376.22 1473.94C1376.5 1475.04 1376.33 1476.21 1375.74 1477.18C1375.16 1478.16 1374.21 1478.86 1373.11 1479.14C1372.01 1479.42 1370.84 1479.25 1369.87 1478.66C1368.89 1478.08 1368.19 1477.13 1367.91 1476.03C1364.9 1464.13 1357.94 1453.61 1348.15 1446.21C1338.37 1438.8 1326.36 1434.95 1314.09 1435.28C1301.82 1435.61 1290.04 1440.11 1280.67 1448.04C1271.3 1455.97 1264.92 1466.85 1262.56 1478.89C1262.37 1479.86 1261.84 1480.74 1261.08 1481.37C1260.31 1482 1259.35 1482.34 1258.36 1482.34V1482.34Z" fill="#AEC3FF"/>
<path d="M1315.55 1578.1C1297.97 1578.1 1280.78 1572.89 1266.15 1563.12C1251.53 1553.35 1240.14 1539.46 1233.41 1523.21C1226.68 1506.97 1224.92 1489.09 1228.35 1471.84C1231.78 1454.6 1240.25 1438.76 1252.68 1426.32C1265.12 1413.89 1280.96 1405.42 1298.2 1401.99C1315.45 1398.56 1333.33 1400.32 1349.57 1407.05C1365.82 1413.78 1379.71 1425.17 1389.48 1439.79C1399.25 1454.42 1404.46 1471.61 1404.46 1489.19C1404.44 1512.76 1395.06 1535.36 1378.39 1552.03C1361.72 1568.7 1339.12 1578.08 1315.55 1578.1V1578.1ZM1315.55 1412.46C1300.37 1412.46 1285.54 1416.96 1272.92 1425.39C1260.3 1433.82 1250.47 1445.81 1244.66 1459.83C1238.85 1473.85 1237.33 1489.28 1240.29 1504.16C1243.26 1519.04 1250.56 1532.72 1261.29 1543.45C1272.02 1554.18 1285.7 1561.49 1300.58 1564.45C1315.47 1567.41 1330.89 1565.89 1344.91 1560.08C1358.93 1554.27 1370.92 1544.44 1379.35 1531.82C1387.78 1519.2 1392.28 1504.37 1392.28 1489.19C1392.26 1468.85 1384.16 1449.34 1369.78 1434.96C1355.4 1420.58 1335.89 1412.48 1315.55 1412.46V1412.46Z" fill="#AEC3FF"/>
<path d="M1333.16 1478.06H1297.95V1483.7H1333.16V1478.06Z" fill="#AEC3FF"/>
<path d="M1333.16 1501.12H1297.95V1506.76H1333.16V1501.12Z" fill="#AEC3FF"/>
<path d="M1341.47 1489.19H1289.64V1494.83H1341.47V1489.19Z" fill="#AEC3FF"/>
<path d="M738.75 1106.87C738.75 1106.87 741.52 1100.64 743.31 1097.69C745.1 1094.74 752.76 1086.1 754.07 1088.06C755.38 1090.02 760.59 1103.18 757.82 1106.87C755.05 1110.56 758 1116.97 744.21 1120.87L738.75 1106.87Z" fill="#FFB27D"/>
<path d="M585.56 1067.54C585.56 1067.54 656.13 1126.44 683.64 1120.99C705.15 1116.72 738.17 1105.4 738.17 1105.4L744.78 1122.29C744.78 1122.29 715.16 1162.46 684.29 1162.72C636.04 1163.14 600.38 1141.83 600.38 1141.83L585.56 1067.54Z" fill="#6980E2"/>
<path d="M461.81 1688.82C461.81 1688.82 463.86 1721.82 470.26 1722.33C471.11 1722.4 502.68 1722.4 502.68 1722.4L542.98 1722.16C542.98 1722.16 542.72 1712.45 530.98 1710.4C519.24 1708.35 499.48 1700.06 492.34 1684.49C484.79 1668.11 461.81 1688.82 461.81 1688.82Z" fill="#1C4B8E"/>
<path d="M459.49 1691.11C459.49 1691.11 471.74 1695.21 481.31 1695.21C488.197 1695.12 495.043 1694.14 501.68 1692.3C501.68 1692.3 503.99 1669.99 516.68 1620.84C523.34 1595.08 532.84 1561.95 546.36 1520.84C583.75 1407.09 595.12 1340.54 596.15 1334.23C596.21 1333.9 596.23 1333.74 596.23 1333.74L596.11 1333.68L481.17 1283.22C481.17 1283.22 495.38 1440 477.25 1500.22C474.499 1509.69 472.302 1519.32 470.67 1529.05C459.23 1594.33 459.49 1691.11 459.49 1691.11Z" fill="#FFA561"/>
<path d="M516.68 1620.84C523.34 1595.08 532.84 1561.95 546.36 1520.84C583.75 1407.09 595.12 1340.54 596.15 1334.23C596.15 1334.05 596.15 1333.87 596.15 1333.68L481.21 1283.22C481.21 1283.22 495.42 1440 477.29 1500.22C474.71 1508.54 516.68 1620.84 516.68 1620.84Z" fill="#F4904D"/>
<path d="M551.59 1688.82C551.59 1688.82 553.59 1721.82 560.03 1722.33C560.88 1722.4 592.45 1722.4 592.45 1722.4L632.76 1722.16C632.76 1722.16 632.49 1712.45 620.76 1710.4C609.03 1708.35 589.26 1700.06 582.12 1684.49C574.57 1668.11 551.59 1688.82 551.59 1688.82Z" fill="#1C4B8E"/>
<path d="M616.75 1286.86C616.75 1286.86 618.25 1388.46 600.67 1513.2C583.09 1637.94 589.05 1690.9 589.05 1690.9C589.05 1690.9 576.97 1694.81 572.1 1695.21C559.68 1696.21 546.95 1692.3 546.95 1692.3C546.95 1692.3 521.79 1567.51 528.95 1505.07C536.11 1442.63 494.5 1290.82 494.5 1290.82L616.75 1286.86Z" fill="#FFA561"/>
<path d="M535.25 1049.11L557.69 1063.82L578.13 1058.04C581.86 1052.71 582.85 1042.44 582.9 1033.54C582.927 1028.09 582.66 1022.64 582.1 1017.22L551.83 1003.86L540.54 998.86C540.54 999.03 541.42 1008.13 541.54 1009.46C543.65 1033.08 535.25 1049.11 535.25 1049.11Z" fill="#FFB27D"/>
<path d="M617.27 1315.11C589.34 1342.11 483.65 1337.53 477.14 1307.83C470.63 1278.13 484.24 1054.94 531.95 1040.92C541.85 1038.01 594.77 1055.11 594.77 1055.11C600.603 1071.2 605.2 1087.71 608.52 1104.5C609.58 1109.88 612.66 1166.91 614.97 1220.27C616.05 1245.27 616.97 1269.38 617.42 1287.07C617.85 1303.63 617.87 1314.52 617.27 1315.11Z" fill="#8C9DF4"/>
<path d="M543.8 1009.91C549.94 1020.29 571.49 1029.38 582.9 1033.54C582.927 1028.09 582.66 1022.64 582.1 1017.22L551.83 1003.86C545.14 1003.77 541.07 1005.27 543.8 1009.91Z" fill="#FCA56B"/>
<path d="M593.52 1015.38C593.52 1015.38 544.75 1030.59 535.74 1000.08C526.73 969.57 514.37 951 545.13 940C575.89 929 585.41 938.85 590.89 948.3C596.37 957.75 606 1010.64 593.52 1015.38Z" fill="#FFB27D"/>
<path d="M589 945.32C589 945.32 585.89 980.84 578.55 979.32C571.21 977.8 563.12 974.48 564.2 985.18C565.28 995.88 557.05 1014.24 546.46 1014.18C523.75 1014.08 499.07 955.8 505.29 944.75C523.2 912.86 614.91 906.42 589 945.32Z" fill="#163560"/>
<path d="M581.8 1041.69C581.17 1041.42 545.49 1025.42 541.32 1026.8C537.15 1028.18 531.95 1040.92 531.95 1040.92L594.77 1055.12C594.77 1055.12 589.83 1045.07 581.8 1041.69Z" fill="#6980E2"/>
<path d="M803.92 1214.53L603.92 1402.84C600 1406.53 595.06 1407.7 592.92 1405.45L586.17 1398.28C584.04 1396.03 585.51 1391.16 589.43 1387.47L789.43 1199.17C793.35 1195.48 798.29 1194.3 800.43 1196.55L807.18 1203.72C809.32 1206 807.84 1210.84 803.92 1214.53Z" fill="#1F4D84"/>
<path d="M691.69 1320.21L603.92 1402.84C600 1406.53 595.06 1407.7 592.92 1405.45L586.17 1398.28C584.04 1396.03 585.51 1391.16 589.43 1387.47L677.2 1304.84L691.69 1320.21Z" fill="#739AF0"/>
<path d="M758 1143.43C764.966 1166.27 777.056 1187.21 793.348 1204.66C809.639 1222.12 829.702 1235.62 852.006 1244.13C874.31 1252.65 898.264 1255.97 922.043 1253.82C945.821 1251.67 968.794 1244.12 989.21 1231.74C1009.63 1219.36 1026.95 1202.49 1039.85 1182.4C1052.75 1162.31 1060.89 1139.54 1063.65 1115.82C1066.41 1092.11 1063.72 1068.07 1055.78 1045.56C1047.84 1023.04 1034.86 1002.64 1017.83 985.9C1017.03 985.1 1016.21 984.31 1015.37 983.53C990.199 959.853 957.909 945.156 923.523 941.725C889.136 938.295 854.58 946.322 825.227 964.558C795.873 982.795 773.368 1010.22 761.211 1042.57C749.053 1074.92 747.924 1110.37 758 1143.43V1143.43ZM802.81 998.75C822.379 977.947 847.678 963.414 875.507 956.99C903.335 950.566 932.444 952.538 959.152 962.658C985.86 972.777 1008.97 990.59 1025.55 1013.84C1042.13 1037.1 1051.45 1064.74 1052.32 1093.29C1053.19 1121.84 1045.58 1150 1030.44 1174.22C1015.3 1198.44 993.322 1217.63 967.28 1229.36C941.238 1241.08 912.303 1244.82 884.135 1240.11C855.966 1235.39 829.83 1222.42 809.03 1202.85C795.198 1189.87 784.062 1174.29 776.26 1157C768.457 1139.72 764.141 1121.06 763.559 1102.1C762.976 1083.14 766.139 1064.26 772.866 1046.52C779.593 1028.79 789.751 1012.55 802.76 998.75H802.81Z" fill="#1F4D84"/>
<g opacity="0.5">
<path opacity="0.5" d="M1013.07 1196.62C993.502 1217.42 968.207 1231.95 940.383 1238.37C912.559 1244.79 883.455 1242.81 856.753 1232.7C830.05 1222.58 806.948 1204.77 790.367 1181.52C773.787 1158.27 764.473 1130.63 763.603 1102.08C762.733 1073.54 770.346 1045.38 785.48 1021.17C800.614 996.951 822.589 977.767 848.626 966.04C874.663 954.314 903.592 950.572 931.756 955.287C959.919 960.002 986.052 972.963 1006.85 992.53C1020.74 1005.47 1031.92 1021.04 1039.76 1038.34C1047.6 1055.63 1051.93 1074.3 1052.51 1093.28C1053.09 1112.25 1049.9 1131.16 1043.13 1148.9C1036.36 1166.63 1026.14 1182.85 1013.07 1196.62V1196.62Z" fill="#B3CFF9"/>
</g>
<path d="M617.42 1287.07C507.22 1208.54 516.42 1103.75 516.42 1103.75C556.7 1126.47 596.67 1176.75 615.01 1220.27C616.05 1245.22 617 1269.38 617.42 1287.07Z" fill="#6980E2"/>
<path d="M726.19 1251.3C733.96 1249.51 739.19 1243.64 740.27 1242.61C740.27 1242.61 743.58 1242.84 739.72 1249.91C739.4 1250.5 738.72 1252.02 738.14 1253.09C738.088 1253.19 738.063 1253.31 738.066 1253.42C738.069 1253.54 738.101 1253.65 738.159 1253.75C738.217 1253.85 738.298 1253.93 738.396 1253.99C738.494 1254.05 738.605 1254.08 738.72 1254.09C743.2 1254.43 747.72 1252.65 756.35 1254.46C757.54 1254.7 757.89 1257.56 757.84 1258.78C757.77 1260.78 757.92 1263.14 755.52 1266.3C754.13 1268.14 750.25 1270.11 741.6 1273.59C738.3 1274.92 728.88 1273.92 720.05 1270.89L713.05 1267.62L715.23 1254.51L717.01 1254.88C719.77 1255.46 723.26 1252 726.19 1251.3Z" fill="#FFB27D"/>
<path d="M550.59 1055.12C550.59 1055.12 451.59 1073.98 579.72 1217.37C600.21 1240.3 711 1270.16 711 1270.16C711 1270.16 722.23 1260.61 716.57 1252.87C716.57 1252.87 640.32 1197.5 623.57 1188.7C616.02 1184.7 594.28 1100.33 581.98 1080C569.68 1059.67 550.59 1055.12 550.59 1055.12Z" fill="#8C9DF4"/>
<path d="M741.43 1108.61C741.43 1108.61 744.67 1102.42 745.3 1099.15C745.93 1095.88 750.01 1086.37 751.69 1084.69C752.37 1084.02 754.58 1084.89 754.84 1087.77C754.96 1089.03 754.34 1091.31 753.25 1094.03C751.48 1098.46 751.77 1104.47 751.16 1106.48C749.63 1111.47 741.43 1108.61 741.43 1108.61Z" fill="#FFB27D"/>
<path d="M1068.47 1675.63C1068.47 1677.3 1068.57 1678.97 1068.78 1680.63C1069.99 1690.53 1074.79 1699.64 1082.25 1706.25C1089.72 1712.85 1099.35 1716.5 1109.32 1716.5H1683.85C1694.57 1716.33 1704.8 1711.95 1712.33 1704.31C1719.85 1696.67 1724.07 1686.37 1724.07 1675.65C1724.07 1664.92 1719.85 1654.62 1712.33 1646.98C1704.8 1639.34 1694.57 1634.96 1683.85 1634.79H1109.32C1098.49 1634.79 1088.1 1639.09 1080.44 1646.75C1072.78 1654.41 1068.47 1664.8 1068.47 1675.63V1675.63Z" fill="#2B478B"/>
<path d="M1112.3 1627.38H1309.3C1310.96 1627.37 1312.55 1626.71 1313.73 1625.54C1314.9 1624.36 1315.56 1622.77 1315.57 1621.11V1621.11C1315.56 1619.45 1314.9 1617.86 1313.73 1616.68C1312.55 1615.51 1310.96 1614.85 1309.3 1614.84H1112.3C1110.64 1614.85 1109.05 1615.51 1107.87 1616.68C1106.7 1617.86 1106.04 1619.45 1106.03 1621.11V1621.11C1106.04 1622.77 1106.7 1624.36 1107.87 1625.54C1109.05 1626.71 1110.64 1627.37 1112.3 1627.38V1627.38Z" fill="#2B478B"/>
<path d="M1123.18 1634.78H1144.53V1627.38H1123.18V1634.78Z" fill="#233862"/>
<path d="M1073.43 1695.17C1076.95 1701.61 1082.14 1706.99 1088.46 1710.74C1094.77 1714.49 1101.98 1716.47 1109.32 1716.48H1231V1695.17H1073.43Z" fill="#233862"/>
<path d="M1800.76 1663.66V1687.59C1800.77 1691.38 1800.02 1695.14 1798.58 1698.65C1797.13 1702.16 1795 1705.35 1792.32 1708.03C1789.63 1710.71 1786.45 1712.84 1782.94 1714.29C1779.43 1715.74 1775.68 1716.49 1771.88 1716.48H1173.41C1169.62 1716.48 1165.86 1715.73 1162.36 1714.28C1158.85 1712.83 1155.67 1710.7 1152.99 1708.02C1150.3 1705.33 1148.18 1702.15 1146.73 1698.65C1145.27 1695.14 1144.53 1691.38 1144.53 1687.59V1663.66C1144.53 1656 1147.57 1648.65 1152.99 1643.24C1158.4 1637.82 1165.75 1634.77 1173.41 1634.77H1771.88C1775.67 1634.77 1779.43 1635.52 1782.93 1636.97C1786.44 1638.42 1789.62 1640.55 1792.3 1643.23C1794.99 1645.92 1797.11 1649.1 1798.56 1652.6C1800.02 1656.11 1800.76 1659.87 1800.76 1663.66V1663.66Z" fill="#F99746"/>
<path d="M1799.76 1695.17C1798.1 1701.29 1794.47 1706.69 1789.43 1710.54C1784.39 1714.4 1778.22 1716.48 1771.88 1716.48H1173.41C1167.07 1716.48 1160.91 1714.39 1155.87 1710.54C1150.83 1706.69 1147.2 1701.29 1145.54 1695.17H1799.76Z" fill="#EF873A"/>
<path d="M1741.32 1675.78C1741.32 1688.47 1745.94 1699.78 1753.21 1707.32L1753.69 1707.82C1759.31 1713.42 1766.44 1716.82 1774.2 1716.82C1786.31 1716.82 1816.34 1698.54 1834.95 1686.4C1844.22 1680.4 1850.66 1675.83 1850.66 1675.83C1850.66 1675.83 1844.22 1671.3 1834.95 1665.25C1816.34 1653.1 1786.31 1634.82 1774.2 1634.82C1770.75 1634.84 1767.34 1635.52 1764.14 1636.82C1758.61 1639.13 1753.82 1642.91 1750.29 1647.75C1745.93 1653.64 1743.07 1660.51 1741.96 1667.75C1741.95 1667.84 1741.95 1667.93 1741.96 1668.02C1741.55 1670.59 1741.33 1673.18 1741.32 1675.78V1675.78Z" fill="#8C9DF4"/>
<path d="M1741.32 1675.78C1741.32 1688.47 1745.94 1699.78 1753.21 1707.32L1845.32 1675.63L1741.93 1667.91C1741.52 1670.51 1741.32 1673.14 1741.32 1675.78V1675.78Z" fill="#6980E2"/>
<path d="M1750.29 1647.65L1842.18 1672.74L1764.18 1636.74C1758.64 1639.04 1753.84 1642.81 1750.29 1647.65V1647.65Z" fill="#9FB1FF"/>
<path d="M1829 1675.78C1829 1680.66 1831.5 1684.78 1835 1686.35C1844.27 1680.35 1850.71 1675.78 1850.71 1675.78C1850.71 1675.78 1844.27 1671.25 1835 1665.2C1831.45 1666.72 1829 1670.88 1829 1675.78Z" fill="#182D4C"/>
<path d="M1991.92 928.87C1976.7 920.98 1964.51 925.94 1964.51 925.94C1917.94 920.47 1904.36 974.78 1904.99 993.46C1905.62 1012.14 1907.75 1032.22 1886.99 1056.46C1826.92 1126.58 1952.72 1129.68 1952.72 1129.68C1953.79 1073.68 2020.95 1094.1 2018 1099.77C2104.06 1120.46 2026.53 946.83 1991.92 928.87Z" fill="#163560"/>
<path d="M1812.3 1151.22C1812.3 1151.22 1804.11 1138.76 1797.51 1138.51C1790.91 1138.26 1778.69 1134.85 1779.67 1137.29C1780.65 1139.73 1788.22 1139.98 1788.95 1141.45C1789.68 1142.92 1777.71 1145.11 1774.29 1145.36C1770.87 1145.61 1762.8 1145.36 1763.04 1147.07C1763.28 1148.78 1777.58 1155.87 1787.67 1154.89C1797.76 1153.91 1810.22 1157.83 1810.22 1157.83L1812.3 1151.22Z" fill="#FFB27D"/>
<path d="M1930.73 1155.26C1927.15 1161.95 1922.95 1168.29 1918.2 1174.2C1908.47 1186.39 1893.47 1200.47 1874.63 1203.2C1865.63 1204.52 1856.83 1202.59 1848.74 1198.99C1825.86 1188.83 1808.66 1165.47 1808.66 1165.47C1807.45 1162.44 1807.05 1159.14 1807.5 1155.9C1807.95 1152.67 1809.24 1149.61 1811.23 1147.02C1811.23 1147.02 1857.43 1157.41 1861.83 1155.21C1866.23 1153.01 1893.28 1093 1898.15 1083C1908.51 1061.75 1924.94 1055.66 1924.94 1055.66L1930.73 1155.26Z" fill="#FFA561"/>
<path d="M1918.2 1174.2C1908.47 1186.39 1893.47 1200.47 1874.63 1203.2C1865.63 1204.52 1856.83 1202.59 1848.74 1198.99C1849.64 1199.11 1872.49 1201.99 1881.6 1185.64C1890.89 1169.02 1900.93 1142.64 1914.73 1151.42C1920.69 1155.27 1920.42 1164.7 1918.2 1174.2Z" fill="#F4904D"/>
<path d="M2103.09 1654C2103.09 1654 2117.18 1666.87 2114.43 1676C2111.68 1685.13 2098.96 1691.23 2097.24 1702.4C2095.52 1713.57 2088.65 1719.67 2082.46 1719.67H2053C2053 1719.67 2048.45 1711.81 2059.45 1709.44C2070.45 1707.07 2074.6 1693.94 2073.91 1681.75C2073.22 1669.56 2074.91 1653.31 2074.91 1653.31L2098.29 1647.9L2103.09 1654Z" fill="#1C4B8E"/>
<path d="M1983.77 1659.41C1983.77 1659.41 1988.84 1713.91 1982.65 1716.96L1903.45 1716.8C1903.45 1716.8 1903.45 1707.66 1916.17 1705.63C1928.89 1703.6 1951.24 1696.15 1955.02 1679.56C1958.8 1662.97 1983.77 1659.41 1983.77 1659.41Z" fill="#1C4B8E"/>
<path d="M2044.7 1118.5C2045.41 1130.69 2045.41 1142.92 2044.7 1155.11C2043.91 1168.34 2030.52 1186.11 2028.63 1190.46C2023.86 1201.46 2018.48 1203.25 2018.48 1203.25L1976.9 1213.44L1962.28 1217.02L1916.16 1203.25C1916.16 1203.25 1895.16 1144.63 1903.6 1111.63C1912.04 1078.63 1924.91 1055.71 1924.91 1055.71C1924.91 1055.71 1956.17 1043.37 2011.53 1052.59L2044.7 1118.5Z" fill="#FFA561"/>
<path d="M2032.53 1160.51C2031.74 1173.75 2030.53 1186.07 2028.63 1190.51C2023.86 1201.51 2018.48 1203.3 2018.48 1203.3L1976.9 1213.49L1958.84 1208.18C1958.84 1208.18 2019.13 1199.04 2012.45 1147.18L2032.53 1160.51Z" fill="#F2CCAA"/>
<path d="M1919.1 1212.14C1919.1 1212.14 1896.26 1283.22 1894.8 1307.42C1893.34 1331.62 1938.45 1651.19 1940.26 1662.34C1941.97 1672.86 1955.02 1679.56 1955.02 1679.56C1955.02 1679.56 1961.02 1683.1 1969.59 1680.68C1981.48 1677.32 1985.24 1673.3 1985.24 1673.3C1985.24 1673.3 2003 1445.38 1992 1364C1985.3 1313.65 1981.59 1262.96 1980.87 1212.17L1919.1 1212.14Z" fill="#6980E2"/>
<path d="M2015.84 1210C2015.84 1210 2050.68 1256.73 2053.92 1288.32C2057.16 1319.91 2059.02 1430.89 2065.92 1461.69C2072.82 1492.49 2098.25 1551.76 2098.25 1647.83C2098.25 1647.83 2095.61 1653.33 2087.45 1656.26C2084.34 1657.31 2081.17 1658.19 2077.96 1658.89C2074.69 1659.63 2071.27 1659.26 2068.24 1657.82C2065.21 1656.38 2062.75 1653.96 2061.26 1650.96C2044.07 1616.36 1989.33 1504.77 1986.52 1481.61C1984.52 1465.21 1967.25 1356.72 1929.52 1293.05C1920.47 1277.77 1935.08 1216.99 1935.08 1216.99L2015.84 1210Z" fill="#8C9DF4"/>
<path d="M1915.45 1201.17C1915.45 1201.17 1924.62 1208.42 1942.83 1208.79C1964.58 1209.23 2018.48 1203.24 2018.48 1203.24C2019.96 1207.68 2020.74 1212.32 2020.78 1217C2020.78 1217 1954.95 1233.61 1916.78 1219.43C1916.8 1219.43 1911.88 1210.17 1915.45 1201.17Z" fill="#233862"/>
<path d="M1937.61 1227.54C1932.14 1227.54 1927.68 1222.54 1927.68 1216.3C1927.68 1210.06 1932.14 1205.07 1937.61 1205.07C1943.08 1205.07 1947.54 1210.07 1947.54 1216.3C1947.54 1222.53 1943.08 1227.54 1937.61 1227.54ZM1937.61 1208.36C1933.95 1208.36 1930.97 1211.92 1930.97 1216.3C1930.97 1220.68 1933.97 1224.3 1937.61 1224.3C1941.25 1224.3 1944.24 1220.73 1944.24 1216.3C1944.24 1211.87 1941.27 1208.36 1937.61 1208.36Z" fill="white"/>
<path d="M2082.36 1220.12L2028.9 1266.67C2027.04 1268.28 2024.62 1269.1 2022.17 1268.93C2019.71 1268.75 2017.43 1267.62 2015.81 1265.76L1947.6 1187.43C1946.8 1186.51 1946.19 1185.44 1945.8 1184.29C1945.42 1183.14 1945.26 1181.92 1945.35 1180.7C1945.43 1179.49 1945.75 1178.3 1946.3 1177.21C1946.84 1176.12 1947.59 1175.15 1948.51 1174.35L2002 1127.8C2003.86 1126.18 2006.28 1125.37 2008.73 1125.54C2011.19 1125.71 2013.47 1126.85 2015.09 1128.7L2083.3 1207.04C2084.1 1207.96 2084.71 1209.03 2085.09 1210.18C2085.47 1211.34 2085.63 1212.56 2085.54 1213.77C2085.45 1214.99 2085.13 1216.18 2084.58 1217.26C2084.04 1218.35 2083.28 1219.32 2082.36 1220.12Z" fill="#2B478B"/>
<path d="M2003.27 1214.24C2002.51 1214.45 1974.87 1217.69 1974.87 1223.4C1974.87 1230.01 1982.97 1238.85 1990.6 1238.4C1993.7 1238.23 2007.96 1225.12 2007.96 1225.12L2003.27 1214.24Z" fill="#FFB27D"/>
<path d="M1989.08 1049.56C1985.93 1041.94 1984.08 1030.32 1984.15 1015.95L1982.06 1016.36L1946.96 1023.36C1946.96 1023.36 1947.76 1034.36 1947.78 1044.81V1045.07C1947.78 1054.07 1941.67 1063.18 1956.17 1066.77C1960.65 1067.83 1995.68 1065.58 1989.08 1049.56Z" fill="#FFB27D"/>
<path d="M1947 1023.31C1947 1023.31 1947.8 1034.31 1947.82 1044.76C1967.46 1044.21 1977.82 1026.29 1982.1 1016.36L1947 1023.31Z" fill="#E8945B"/>
<path d="M1940.4 1033.16C1940.4 1033.16 1986.88 1033.93 1986.91 1004.98C1986.94 976.03 1992.96 956.63 1963.29 954.91C1933.62 953.19 1927.83 964.24 1925.47 973.91C1923.11 983.58 1928.31 1032.22 1940.4 1033.16Z" fill="#FFB27D"/>
<path d="M1942.12 954.21C1942.12 954.21 1954.84 988.21 1974.37 993.21C1993.9 998.21 2002.37 993 2002.37 993C1992.73 984.537 1986.34 972.988 1984.28 960.33C1984.28 960.33 1951.72 938 1942.12 954.21Z" fill="#163560"/>
<path d="M1945.27 957C1945.27 957 1935.83 960.53 1931.95 967.41C1927.26 975.449 1925.07 984.703 1925.67 993.99C1925.67 993.99 1916.08 970.91 1926.85 957.84C1938.28 944 1945.27 957 1945.27 957Z" fill="#163560"/>
<path d="M2003.27 1214.24C2003.27 1214.24 1996.65 1212.12 1992.22 1212.74C1987.79 1213.36 1984.52 1212.65 1984.52 1213.89C1984.52 1215.13 1990.23 1215.71 1991.45 1216.3C1992.67 1216.89 2003.27 1214.24 2003.27 1214.24Z" fill="#FFB27D"/>
<path d="M2011.53 1052.59C2011.53 1052.59 2044.53 1054.9 2057.17 1085.64C2069.81 1116.38 2093.81 1168.01 2093.81 1176.64C2093.81 1185.27 2080.41 1212.09 2008.42 1227.49C2008.42 1227.49 2000.98 1219.65 2001.42 1213.49C2001.42 1213.49 2046.36 1174.89 2046.24 1170.38C2046.01 1161.85 2038.87 1150.58 1999.42 1111.12C1988.7 1100.41 2011.53 1052.59 2011.53 1052.59Z" fill="#FFA561"/>
<path d="M894.9 138.59C894.9 138.59 868.43 134.12 851.65 146.8C834.87 159.48 832.18 155.38 822.71 163.21C813.24 171.04 822.93 180.36 817.71 185.58C812.49 190.8 812.29 200.87 820.03 203.48C827.77 206.09 822.56 220.27 839.34 222.13C856.12 223.99 848.6 231.76 864.52 232.95C880.44 234.14 893.6 234.67 901.99 238.19C910.38 241.71 917.99 238.08 920.38 231.69C922.77 225.3 929.49 233.54 931.45 224.8C933.41 216.06 926.45 212.62 930.33 205.54C934.21 198.46 943.93 148.1 894.9 138.59Z" fill="#233862"/>
<path d="M940.68 646.64C939.84 647.576 939.288 648.734 939.089 649.975C938.89 651.217 939.054 652.489 939.56 653.64V653.64C941.28 658.29 946.89 663.45 953.4 668.64C954.23 669.3 954.97 669.9 955.62 670.46L956.12 670.9L956.5 671.24C962.58 676.76 960.31 678.05 971.24 689.24C983.7 702.02 992.24 702.24 994.63 701C996.63 700 992.46 693.19 987.79 685.56L987.11 684.44C986.49 683.44 985.87 682.44 985.25 681.37C979.78 672.18 981.14 667.84 982.32 654.09C983.32 642.92 999.25 591.6 999.25 591.6L975.52 587.68C975.52 587.68 968.67 628.51 960.86 634.84C956.67 638.22 951.97 638.3 947.94 640.84L947.11 641.37C944.739 642.83 942.577 644.603 940.68 646.64V646.64Z" fill="#FFB27D"/>
<path d="M940.68 646.64C939.84 647.576 939.288 648.734 939.089 649.975C938.89 651.217 939.054 652.489 939.56 653.64V653.64C941.66 658.28 947.13 663.42 953.42 668.56C954.25 669.23 954.97 669.85 955.62 670.43L956.12 670.87L956.5 671.21C962.58 676.73 960.31 678.02 971.24 689.21C983.7 701.99 992.24 702.21 994.63 700.97C996.63 699.97 992.46 693.16 987.79 685.53C979.116 682.21 971.472 676.66 965.63 669.44C958.12 659.99 953.06 647.81 947.94 640.78L947.11 641.31C944.736 642.788 942.573 644.581 940.68 646.64V646.64Z" fill="#233862"/>
<path d="M1131.68 630.49C1133.19 637.79 1143.61 636.49 1155.24 633.57C1166.87 630.65 1164.13 634.05 1180.69 632.09C1197.25 630.13 1202.24 623.92 1202.69 621.46C1203.13 619.26 1194.93 618.55 1186.13 617.6L1182.81 617.23C1172.87 616.05 1165.56 609.7 1156.51 604.51C1147.94 599.59 1135.06 579.38 1135.06 579.38L1112.33 581.38C1112.33 581.38 1124.39 599.38 1129.06 607.26C1131.81 611.88 1131.71 618.01 1131.41 622.74C1131.15 625.324 1131.24 627.93 1131.68 630.49V630.49Z" fill="#FFB27D"/>
<path d="M1155.24 633.57C1166.87 630.64 1164.13 634.05 1180.69 632.09C1197.25 630.13 1202.24 623.92 1202.69 621.46C1203.13 619.26 1194.93 618.55 1186.13 617.6L1186.05 617.77C1178.98 622.38 1170.79 624.989 1162.36 625.32C1151.11 625.67 1139.17 622.53 1131.36 622.71C1131.09 625.302 1131.16 627.919 1131.59 630.49C1133.19 637.79 1143.61 636.5 1155.24 633.57Z" fill="#233862"/>
<path d="M1043.51 485.7L1022.65 543.05L995.43 617.94C990.478 618.343 985.494 617.921 980.68 616.69C974.02 614.82 966.37 609.85 966.37 609.85C966.37 609.85 973.51 529.61 987.56 483.47C991.16 471.63 995.22 462.04 999.74 456.63C1021.84 430.14 1043.51 485.7 1043.51 485.7Z" fill="#ED7D2B"/>
<path d="M1021.25 395C1007.25 390.61 967.62 396.66 927.77 404.75L919.32 391L833.09 384.88C833.09 384.88 806.09 444.61 820.95 488.22C823.83 496.68 837.64 496.98 837.64 496.98C837.64 496.98 888.16 497.53 904.81 497.42C947.67 497.11 995.31 467.32 1001.49 466.03C1011.61 463.94 1015.8 484.17 1026.09 505.37C1036.38 526.57 1122 599 1122 599C1122 599 1135.08 599 1140.47 597C1146.26 594.78 1148.37 591.94 1148.37 591.94C1148.37 591.94 1052.73 404.92 1021.25 395Z" fill="#F99746"/>
<path d="M892.15 258.16C892.29 258.24 877.09 263.55 866.87 259.11C857.26 254.94 849.87 239.23 850.03 239.22C854.39 238.99 859.15 235.14 862.66 210.11L864.52 210.76L895.81 221.76C895.81 221.76 893.62 231.76 892.22 241.34C891.05 249.36 890.44 257 892.15 258.16Z" fill="#FFB27D"/>
<path d="M895.81 221.77C895.81 221.77 894.47 228.77 892.62 238.85C874.67 235.75 867.11 220.44 864.52 210.76L895.81 221.77Z" fill="#ED975D"/>
<path d="M900.53 231.68C900.53 231.68 857.78 226.25 861.53 199.68C865.28 173.11 862.36 154.52 889.81 156.86C917.26 159.2 921.11 170.1 922 179.28C922.89 188.46 911.74 232.41 900.53 231.68Z" fill="#FFB27D"/>
<path d="M920.38 164.74C920.38 164.74 893.21 188.49 874.63 190.52C856.05 192.55 848.97 186.63 848.97 186.63C856.343 179.938 862.259 171.799 866.35 162.72C867.283 160.585 868.77 158.738 870.656 157.37C872.543 156.003 874.76 155.164 877.08 154.94C890.35 153.7 915.51 153 920.38 164.74Z" fill="#233862"/>
<path d="M903.28 162.75C903.28 162.75 912.49 171.53 915.41 178.07C918.24 184.38 919.18 199.51 917.01 205.54C917.01 205.54 931.01 177.73 922.9 164.32C914.24 150.11 903.28 162.75 903.28 162.75Z" fill="#233862"/>
<path d="M928.56 320.81C927.87 407.26 928.68 389.19 919.29 397.46C917.02 399.46 910.62 400.68 902.2 401.29C875.7 403.29 829.08 399.2 827.27 394.29C821.04 377.39 825.27 372.09 820.03 346.18C819.48 343.42 818.8 340.44 818.03 337.18C813.65 319.39 809.46 313.35 824.35 284.62C837.85 258.62 851.92 237.43 853.2 238.18C889.46 259.36 892.2 241.32 892.2 241.32C892.2 241.32 928.89 278.64 928.56 320.81Z" fill="#8C9DF4"/>
<path d="M1022.65 543.05L995.43 617.94C990.478 618.343 985.494 617.921 980.68 616.69C974.02 614.82 966.37 609.85 966.37 609.85C966.37 609.85 973.51 529.61 987.56 483.47L1022.65 543.05Z" fill="#F99746"/>
<path d="M892.22 241.35C892.22 241.35 929.41 247.35 933.89 263.35C938.37 279.35 964.7 373.15 964.7 373.15C964.7 373.15 945.84 376.68 937.05 368.02C928.26 359.36 906.12 287.29 906.12 287.29L892.22 241.35Z" fill="#8C9DF4"/>
<path d="M902.2 401.29C875.7 403.29 829.08 399.2 827.27 394.29C821.04 377.39 825.27 372.09 820.03 346.18L832.56 310.09C832.56 310.09 830.73 350.19 842.63 360.65C854.53 371.11 891.18 380.65 896.99 389.44C899.509 392.998 901.281 397.029 902.2 401.29Z" fill="#6980E2"/>
<path d="M871.71 384.65C871.71 384.65 897.82 378.65 902.05 380.93C906.28 383.21 916.66 391.6 917.97 394.53C919.28 397.46 908.56 392.37 905.08 391.46C902.83 390.87 896.92 392.97 893.99 393.97C881.68 398.17 874.1 396.11 874.1 396.11L871.71 384.65Z" fill="#FFB27D"/>
<path d="M853.16 238.19C853.16 238.19 818.06 240.6 806.03 257.64C789.09 281.64 755.86 383.58 775.41 397C797.41 412.12 875.14 400.3 875.14 400.3C875.14 400.3 877.65 388.18 874 382.35C870.35 376.52 811.76 367.48 809 364.79C806.24 362.1 842.39 311.87 842.34 303.79C842.29 295.71 853.16 238.19 853.16 238.19Z" fill="#8C9DF4"/>
<path d="M903.37 388.2C903.37 388.2 908.9 395.2 910.7 396.06C911.619 396.551 912.662 396.763 913.7 396.67L909.96 390.05L903.37 388.2Z" fill="#FFB27D"/>
<path d="M902.05 380.93L918.05 388.55C917.737 388.931 917.329 389.225 916.868 389.4C916.406 389.575 915.907 389.627 915.42 389.55C913.42 389.48 908.49 387.7 908.49 387.7L902.05 380.93Z" fill="#FFB27D"/>
<path d="M907.29 407.47L1033.31 406.58L1070.55 312.04L944.73 312.93L907.29 407.47Z" fill="#233862"/>
<path d="M1034.76 402.89L868.36 404.07L868.38 407.74L1033.31 406.58L1034.76 402.89Z" fill="#233862"/>
<path d="M1001.17 359.67C1002.09 356.35 1000.17 353.67 996.84 353.67C995.098 353.778 993.43 354.416 992.06 355.497C990.69 356.578 989.681 358.051 989.17 359.72C988.24 363.04 990.17 365.72 993.49 365.72C995.233 365.611 996.901 364.973 998.273 363.892C999.645 362.812 1000.66 361.339 1001.17 359.67V359.67Z" fill="#EBF3FA"/>
<path d="M266.33 1716.18H358.33C363.26 1712 354.92 1702.51 346.2 1701.87C342.42 1701.58 337.64 1702.38 332.2 1703.53C330.93 1686.72 323.71 1611.17 296.47 1614.2C265.85 1617.6 296.47 1647.48 305.13 1665.2C311.54 1678.31 318.31 1697.09 321.4 1705.96C318.91 1706.5 316.34 1707.03 313.71 1707.51C309.65 1695.05 294.55 1653.13 275.34 1655.57C252.79 1658.43 261.85 1675.24 277.84 1685.21C289.56 1692.55 303.96 1702.98 310.84 1708.02C304.897 1709.05 298.872 1709.53 292.84 1709.46C277 1709 269.31 1713.69 266.33 1716.18Z" fill="#A8D29F"/>
<path d="M2256.62 1716H2154.87C2149.42 1711.37 2158.65 1700.87 2168.29 1700.17C2172.47 1699.85 2177.77 1700.73 2183.82 1702C2185.21 1683.41 2193.21 1599.81 2223.34 1603.17C2257.22 1606.93 2223.34 1639.99 2213.77 1659.55C2206.67 1674.05 2199.19 1694.84 2195.77 1704.65C2198.52 1705.24 2201.36 1705.82 2204.27 1706.36C2208.76 1692.57 2225.47 1646.19 2246.72 1648.89C2271.72 1652.06 2261.64 1670.65 2243.96 1681.69C2230.96 1689.81 2215.06 1701.35 2207.49 1706.92C2214.06 1708.07 2220.71 1708.6 2227.38 1708.51C2244.81 1708.07 2253.32 1713.21 2256.62 1716Z" fill="#A8D29F"/>
<path d="M112.08 1715.83H2402.08C2402.85 1715.83 2403.59 1716.14 2404.13 1716.68C2404.67 1717.22 2404.98 1717.96 2404.98 1718.73V1720.51C2404.98 1721.28 2404.67 1722.02 2404.13 1722.56C2403.59 1723.1 2402.85 1723.41 2402.08 1723.41H112.08C111.308 1723.41 110.568 1723.1 110.022 1722.56C109.476 1722.01 109.17 1721.27 109.17 1720.5V1718.72C109.17 1717.95 109.475 1717.21 110.019 1716.67C110.563 1716.13 111.301 1715.82 112.07 1715.82L112.08 1715.83Z" fill="#233862"/>
</svg>
