<svg width="270" height="185" viewBox="0 0 270 185" fill="none" xmlns="http://www.w3.org/2000/svg">
<g clip-path="url(#clip0)">
<path d="M231.738 77.0961C235.458 80.9982 239.609 81.6208 244.19 78.9641C242.268 75.8831 241.81 72.5319 242.323 69.0017H233.398C233.793 72.1039 233.687 74.9924 231.738 77.0961Z" fill="#FFB8B8"/>
<path d="M246.473 179.21L251.247 176.72L253.323 150.361V136.455L242.322 136.248L245.436 150.153L246.473 179.21Z" fill="#FFB8B8"/>
<path d="M232.636 179.21L227.863 176.72L225.787 150.361V136.455L236.787 136.248L233.674 150.153L232.636 179.21Z" fill="#FFB8B8"/>
<path d="M225.304 139.361L236.926 138.323L238.794 127.738L241.077 138.116L253.738 137.285C254.014 132.242 253.312 127.052 251.662 121.719L223.851 121.096L225.304 139.361Z" fill="#2F2E41"/>
<path d="M213.223 99.6083L199.242 88.8425C199.097 88.7308 198.937 88.6392 198.768 88.5701L196.736 87.7434C195.104 87.0793 191.995 84.8706 193.511 82.5963C194.733 80.7627 199.413 84.0475 199.988 85.2644C200.17 85.6474 200.468 85.963 200.841 86.1661L203.682 87.723C203.751 87.7609 203.822 87.7947 203.895 87.8243L214.712 92.2088C215.012 92.3303 215.337 92.3785 215.659 92.3495C215.981 92.3204 216.292 92.2148 216.565 92.0416L218.526 90.7981C218.805 90.6211 219.123 90.5149 219.453 90.4885C219.782 90.462 220.113 90.5163 220.416 90.6465C220.72 90.7767 220.987 90.9789 221.195 91.2357C221.403 91.4925 221.546 91.7961 221.61 92.1202L222.258 95.3914C222.351 95.8624 222.275 96.3512 222.042 96.7713C221.81 97.1914 221.436 97.5157 220.987 97.6867L215.188 99.8973C214.863 100.021 214.512 100.06 214.168 100.009C213.824 99.9584 213.498 99.8205 213.223 99.6083Z" fill="#FFB8B8"/>
<path d="M215.82 91.7644C219.691 90.7264 219.284 96.1342 222.238 98.7933L228.044 94.2092L224.681 77.9263C223.779 78.1841 222.949 78.6482 222.256 79.282C221.564 79.9158 221.029 80.7018 220.693 81.578L215.82 91.7644Z" fill="#6C63FF"/>
<path d="M223.02 122.134H252.285C247.549 109.371 248.01 96.2445 252.042 82.8679C252.11 82.6459 252.098 82.4071 252.009 82.1929C251.919 81.9787 251.758 81.8024 251.552 81.6944L243.153 77.3037C239.855 79.4491 236.312 78.7898 232.568 75.8508L223.436 78.3414C225.922 93.2722 225.992 107.896 223.02 122.134Z" fill="#6C63FF"/>
<path d="M230.338 184.085L218.142 184.602C217.611 184.624 217.091 184.45 216.681 184.111C216.271 183.773 216.001 183.295 215.922 182.769C215.842 182.238 215.964 181.697 216.263 181.251C216.562 180.805 217.017 180.488 217.539 180.36L219.607 179.853L227.737 175.14C228.942 176.388 230.6 177.442 232.628 178.34L232.652 181.654C232.656 182.28 232.418 182.883 231.986 183.337C231.554 183.79 230.964 184.058 230.338 184.085Z" fill="#2F2E41"/>
<path d="M269.809 184.644H0.0980835V183.978H269.93L269.809 184.644Z" fill="#3F3D56"/>
<path d="M248.67 183.9L260.866 184.417C261.397 184.439 261.918 184.264 262.328 183.926C262.737 183.588 263.008 183.11 263.086 182.584C263.166 182.053 263.044 181.512 262.745 181.066C262.446 180.62 261.991 180.302 261.47 180.175L259.401 179.667L251.271 174.955C250.066 176.202 248.408 177.257 246.38 178.155L246.356 181.468C246.352 182.094 246.591 182.698 247.022 183.151C247.454 183.605 248.045 183.873 248.67 183.9Z" fill="#2F2E41"/>
<path d="M236.926 72.7376C240.594 72.7376 243.568 69.7641 243.568 66.096C243.568 62.428 240.594 59.4545 236.926 59.4545C233.258 59.4545 230.285 62.428 230.285 66.096C230.285 69.7641 233.258 72.7376 236.926 72.7376Z" fill="#FFB8B8"/>
<path d="M247.304 120.059L245.11 124.325C244.916 124.702 244.804 125.115 244.782 125.538C244.759 125.96 244.826 126.383 244.979 126.778C245.131 127.173 245.366 127.531 245.666 127.829C245.967 128.127 246.328 128.358 246.724 128.507C247.144 128.664 247.593 128.725 248.04 128.686C248.486 128.647 248.918 128.508 249.304 128.281C249.69 128.053 250.019 127.741 250.269 127.369C250.519 126.997 250.682 126.574 250.747 126.13L251.662 119.851L254.983 104.077L254.775 96.1906H248.134C250.399 102.057 249.275 110.709 247.304 120.059Z" fill="#FFB8B8"/>
<path d="M247.096 97.0208H256.021L254.725 87.2332C254.55 85.9059 254.044 84.6436 253.256 83.5617C252.467 82.4798 251.419 81.6127 250.209 81.0396L247.096 97.0208Z" fill="#6C63FF"/>
<path d="M243.987 62.4378C244.12 61.5505 244.064 60.6453 243.824 59.7811C243.583 58.9169 243.163 58.113 242.591 57.4219C241.458 56.081 239.559 54.9835 236.408 55.5013C229.532 56.6309 227.55 62.3545 228.223 63.7939C228.897 65.2333 230.961 68.5699 230.961 68.5699C230.961 68.5699 229.446 65.267 231.091 64.5946C232.735 63.9223 239.1 61.2738 241.321 62.4669C241.95 62.7827 242.484 63.2594 242.869 63.8486C243.253 64.4378 243.475 65.1184 243.511 65.8211L243.987 62.4378Z" fill="#2F2E41"/>
<path d="M130.312 34.7968L127.641 36.1517C124.566 30.0954 120.491 24.601 115.588 19.8994C91.5125 -3.24632 53.0951 -2.4896 29.9494 21.5862C6.80373 45.662 7.56046 84.0795 31.6363 107.225C36.2186 111.639 41.4682 115.303 47.1917 118.082L45.8855 120.777C36.8134 116.371 28.9196 109.871 22.8565 101.812C16.7933 93.7531 12.7348 84.3672 11.0162 74.4296C9.29767 64.4921 9.9684 54.2883 12.973 44.6612C15.9776 35.0342 21.2298 26.2602 28.2957 19.0643C35.3616 11.8684 44.0383 6.45708 53.609 3.27746C63.1797 0.0978467 73.3696 -0.7588 83.3368 0.778298C93.304 2.3154 102.762 6.20212 110.93 12.1173C119.099 18.0325 125.742 25.8064 130.312 34.7968Z" fill="#E6E6E6"/>
<path d="M39.9704 90.5041C36.0427 94.5897 33.8988 100.068 34.0104 105.734C34.122 111.401 36.48 116.791 40.5656 120.718C44.6511 124.646 50.1297 126.79 55.7959 126.678C61.4622 126.567 66.852 124.209 70.7798 120.123L74.4586 116.297L43.6492 86.6775L39.9704 90.5041Z" fill="#E6E6E6"/>
<path d="M41.585 84.5042C40.7107 85.4156 40.2337 86.6367 40.2586 87.8994C40.2834 89.1621 40.8082 90.3635 41.7176 91.2398L69.9759 118.406C70.8867 119.282 72.108 119.76 73.3712 119.735C74.6343 119.71 75.8359 119.184 76.7115 118.274C77.5871 117.363 78.0651 116.142 78.0402 114.878C78.0153 113.615 77.4896 112.414 76.5788 111.538L48.3206 84.3715C47.4091 83.4972 46.1881 83.0202 44.9254 83.0451C43.6626 83.0699 42.4613 83.5947 41.585 84.5042Z" fill="#535461"/>
<path d="M126.339 62.3311L130.018 58.5045C133.946 54.4189 136.089 48.9404 135.978 43.2742C135.866 37.6079 133.508 32.2181 129.423 28.2903C127.4 26.3455 125.014 24.8182 122.4 23.7956C119.787 22.773 116.998 22.2751 114.192 22.3303C108.526 22.4419 103.136 24.7999 99.2085 28.8855L95.5297 32.7121L126.339 62.3311Z" fill="#E6E6E6"/>
<path d="M93.2768 30.735C92.4025 31.6465 91.9255 32.8675 91.9504 34.1303C91.9753 35.393 92.5 36.5943 93.4095 37.4706L121.668 64.6372C122.579 65.5117 123.8 65.9888 125.062 65.9635C126.325 65.9381 127.526 65.4125 128.401 64.5021C129.276 63.5918 129.754 62.3711 129.73 61.1085C129.705 59.8459 129.18 58.6447 128.271 57.7688L100.012 30.6023C99.101 29.7281 97.8799 29.251 96.6172 29.2759C95.3545 29.3008 94.1531 29.8255 93.2768 30.735Z" fill="#535461"/>
<path d="M105.197 93.5163V91.309C105.197 91.309 114.829 85.8912 122.655 91.309V93.3156L105.197 93.5163Z" fill="#535461"/>
<path d="M192.885 93.5163V91.309C192.885 91.309 202.517 85.8912 210.343 91.309V93.3156L192.885 93.5163Z" fill="#535461"/>
<path d="M134.092 93.3156H124.661C124.661 93.3156 122.253 90.5064 114.227 90.707C106.201 90.9077 104.595 93.3156 104.595 93.3156C104.595 93.3156 96.6692 98.6331 94.8633 105.255C94.8633 105.255 85.1313 134.451 84.9306 157.326C84.73 180.201 93.559 183.412 98.1741 184.014C102.789 184.616 111.016 183.813 119.043 163.546L122.454 151.707C122.454 151.707 123.056 144.684 130.28 149.099C137.503 153.513 143.924 146.691 143.924 146.691H171.014C171.014 146.691 180.043 152.309 188.27 147.895C188.27 147.895 191.481 143.681 194.491 157.928C194.491 157.928 203.721 187.224 217.968 184.214C232.215 181.204 230.609 156.724 230.609 156.724C230.609 156.724 228.703 119.301 220.877 106.057C220.877 106.057 213.353 92.3123 208.336 91.7103C208.336 91.7103 197.501 89.7037 193.287 91.5096L190.879 93.5162L134.092 93.3156Z" fill="#E6E6E6"/>
<path d="M112.22 130.438C121.862 130.438 129.678 122.622 129.678 112.98C129.678 103.339 121.862 95.5228 112.22 95.5228C102.579 95.5228 94.7629 103.339 94.7629 112.98C94.7629 122.622 102.579 130.438 112.22 130.438Z" fill="#535461"/>
<path d="M203.32 130.438C212.961 130.438 220.777 122.622 220.777 112.98C220.777 103.339 212.961 95.5228 203.32 95.5228C193.678 95.5228 185.862 103.339 185.862 112.98C185.862 122.622 193.678 130.438 203.32 130.438Z" fill="#535461"/>
<path d="M115.262 109.087L112.935 111.146C112.738 111.32 112.484 111.415 112.221 111.415C111.959 111.415 111.705 111.32 111.508 111.146L109.176 109.087C109.062 108.987 108.971 108.864 108.908 108.725C108.845 108.587 108.812 108.437 108.811 108.285V102.62C108.812 102.334 108.926 102.06 109.128 101.858C109.33 101.656 109.605 101.543 109.891 101.543H114.556C114.842 101.542 115.116 101.655 115.319 101.857C115.521 102.059 115.635 102.332 115.636 102.618V108.281C115.634 108.434 115.6 108.585 115.536 108.724C115.472 108.863 115.378 108.987 115.262 109.087Z" fill="#E6E6E6"/>
<path d="M115.262 116.871L112.935 114.814C112.738 114.641 112.484 114.545 112.221 114.545C111.959 114.545 111.705 114.641 111.508 114.814L109.176 116.873C109.062 116.973 108.971 117.097 108.908 117.235C108.845 117.374 108.812 117.524 108.811 117.676V123.334C108.811 123.62 108.924 123.894 109.125 124.097C109.327 124.299 109.601 124.413 109.887 124.414H114.556C114.842 124.414 115.116 124.301 115.319 124.1C115.521 123.898 115.635 123.624 115.636 123.338V117.678C115.634 117.524 115.6 117.373 115.536 117.234C115.472 117.095 115.378 116.971 115.262 116.871Z" fill="#E6E6E6"/>
<path d="M108.33 116.026L110.388 113.695C110.562 113.497 110.658 113.244 110.658 112.981C110.658 112.719 110.562 112.465 110.388 112.268L108.33 109.936C108.229 109.822 108.106 109.731 107.967 109.668C107.829 109.605 107.679 109.572 107.527 109.571H101.868C101.582 109.572 101.308 109.686 101.106 109.888C100.904 110.09 100.791 110.365 100.791 110.651V115.316C100.79 115.602 100.903 115.876 101.105 116.078C101.307 116.281 101.58 116.395 101.866 116.395H107.529C107.681 116.394 107.831 116.36 107.969 116.296C108.107 116.233 108.23 116.141 108.33 116.026Z" fill="#E6E6E6"/>
<path d="M116.113 116.026L114.058 113.693C113.884 113.496 113.788 113.242 113.788 112.979C113.788 112.716 113.884 112.463 114.058 112.266L116.117 109.934C116.218 109.82 116.341 109.729 116.479 109.666C116.618 109.603 116.768 109.57 116.92 109.569H122.578C122.864 109.568 123.138 109.682 123.341 109.883C123.543 110.085 123.657 110.359 123.658 110.645V115.314C123.658 115.6 123.545 115.874 123.344 116.076C123.142 116.279 122.868 116.393 122.582 116.393H116.922C116.769 116.393 116.617 116.36 116.478 116.297C116.338 116.234 116.214 116.141 116.113 116.026Z" fill="#E6E6E6"/>
<path d="M135.898 144.684C142.88 144.684 148.54 139.025 148.54 132.043C148.54 125.061 142.88 119.401 135.898 119.401C128.916 119.401 123.257 125.061 123.257 132.043C123.257 139.025 128.916 144.684 135.898 144.684Z" fill="#535461"/>
<path d="M179.642 144.684C186.624 144.684 192.283 139.025 192.283 132.043C192.283 125.061 186.624 119.401 179.642 119.401C172.66 119.401 167 125.061 167 132.043C167 139.025 172.66 144.684 179.642 144.684Z" fill="#535461"/>
<path d="M135.898 140.471C140.553 140.471 144.326 136.697 144.326 132.043C144.326 127.388 140.553 123.615 135.898 123.615C131.244 123.615 127.47 127.388 127.47 132.043C127.47 136.697 131.244 140.471 135.898 140.471Z" fill="#E6E6E6"/>
<path d="M135.898 137.862C134.747 137.862 133.622 137.521 132.665 136.881C131.708 136.242 130.962 135.333 130.522 134.27C130.082 133.206 129.966 132.036 130.191 130.908C130.415 129.779 130.97 128.742 131.783 127.928C132.597 127.114 133.634 126.56 134.763 126.336C135.892 126.111 137.062 126.226 138.125 126.667C139.188 127.107 140.097 127.853 140.737 128.81C141.376 129.767 141.717 130.892 141.717 132.043C141.716 133.586 141.102 135.065 140.011 136.156C138.92 137.247 137.441 137.86 135.898 137.862ZM135.898 126.625C134.827 126.625 133.779 126.943 132.888 127.538C131.997 128.133 131.303 128.98 130.893 129.97C130.483 130.959 130.375 132.049 130.584 133.1C130.794 134.151 131.31 135.116 132.067 135.874C132.825 136.631 133.79 137.147 134.841 137.357C135.892 137.566 136.982 137.458 137.971 137.048C138.961 136.638 139.808 135.944 140.403 135.053C140.998 134.162 141.316 133.114 141.316 132.043C141.314 130.606 140.743 129.229 139.727 128.214C138.712 127.198 137.335 126.627 135.898 126.625Z" fill="#535461"/>
<path d="M179.642 140.471C184.296 140.471 188.07 136.697 188.07 132.043C188.07 127.388 184.296 123.615 179.642 123.615C174.987 123.615 171.214 127.388 171.214 132.043C171.214 136.697 174.987 140.471 179.642 140.471Z" fill="#E6E6E6"/>
<path d="M179.642 137.862C178.491 137.862 177.366 137.521 176.409 136.881C175.452 136.242 174.706 135.333 174.266 134.27C173.825 133.206 173.71 132.036 173.935 130.908C174.159 129.779 174.713 128.742 175.527 127.928C176.341 127.114 177.378 126.56 178.507 126.336C179.635 126.111 180.806 126.226 181.869 126.667C182.932 127.107 183.841 127.853 184.48 128.81C185.12 129.767 185.461 130.892 185.461 132.043C185.459 133.586 184.846 135.065 183.755 136.156C182.664 137.247 181.185 137.86 179.642 137.862ZM179.642 126.625C178.57 126.625 177.523 126.943 176.632 127.538C175.741 128.133 175.047 128.98 174.637 129.97C174.226 130.959 174.119 132.049 174.328 133.1C174.537 134.151 175.053 135.116 175.811 135.874C176.569 136.631 177.534 137.147 178.585 137.357C179.636 137.566 180.725 137.458 181.715 137.048C182.705 136.638 183.551 135.944 184.147 135.053C184.742 134.162 185.06 133.114 185.06 132.043C185.058 130.606 184.487 129.229 183.471 128.214C182.455 127.198 181.078 126.627 179.642 126.625Z" fill="#535461"/>
<path d="M158.171 137.059C160.166 137.059 161.783 135.442 161.783 133.447C161.783 131.453 160.166 129.836 158.171 129.836C156.177 129.836 154.559 131.453 154.559 133.447C154.559 135.442 156.177 137.059 158.171 137.059Z" fill="#535461"/>
<path d="M152.651 122.18C153.087 122.18 153.44 121.827 153.44 121.392C153.44 120.956 153.087 120.603 152.651 120.603C152.216 120.603 151.863 120.956 151.863 121.392C151.863 121.827 152.216 122.18 152.651 122.18Z" fill="#535461"/>
<path d="M155.605 122.18C156.04 122.18 156.394 121.827 156.394 121.392C156.394 120.956 156.04 120.603 155.605 120.603C155.169 120.603 154.816 120.956 154.816 121.392C154.816 121.827 155.169 122.18 155.605 122.18Z" fill="#535461"/>
<path d="M155.212 125.923C155.647 125.923 156 125.57 156 125.134C156 124.699 155.647 124.346 155.212 124.346C154.776 124.346 154.423 124.699 154.423 125.134C154.423 125.57 154.776 125.923 155.212 125.923Z" fill="#535461"/>
<path d="M157.971 126.023C158.414 126.023 158.773 125.664 158.773 125.22C158.773 124.777 158.414 124.418 157.971 124.418C157.527 124.418 157.168 124.777 157.168 125.22C157.168 125.664 157.527 126.023 157.971 126.023Z" fill="#535461"/>
<path d="M160.726 125.923C161.161 125.923 161.514 125.57 161.514 125.134C161.514 124.699 161.161 124.346 160.726 124.346C160.29 124.346 159.937 124.699 159.937 125.134C159.937 125.57 160.29 125.923 160.726 125.923Z" fill="#535461"/>
<path d="M154.03 124.151C154.465 124.151 154.818 123.798 154.818 123.362C154.818 122.927 154.465 122.574 154.03 122.574C153.594 122.574 153.241 122.927 153.241 123.362C153.241 123.798 153.594 124.151 154.03 124.151Z" fill="#535461"/>
<path d="M156.566 124.217C157.009 124.217 157.369 123.858 157.369 123.415C157.369 122.971 157.009 122.612 156.566 122.612C156.123 122.612 155.763 122.971 155.763 123.415C155.763 123.858 156.123 124.217 156.566 124.217Z" fill="#535461"/>
<path d="M159.175 124.217C159.618 124.217 159.977 123.858 159.977 123.415C159.977 122.971 159.618 122.612 159.175 122.612C158.731 122.612 158.372 122.971 158.372 123.415C158.372 123.858 158.731 124.217 159.175 124.217Z" fill="#535461"/>
<path d="M161.908 124.151C162.343 124.151 162.696 123.798 162.696 123.362C162.696 122.927 162.343 122.574 161.908 122.574C161.472 122.574 161.119 122.927 161.119 123.362C161.119 123.798 161.472 124.151 161.908 124.151Z" fill="#535461"/>
<path d="M157.971 122.211C158.414 122.211 158.773 121.851 158.773 121.408C158.773 120.965 158.414 120.605 157.971 120.605C157.527 120.605 157.168 120.965 157.168 121.408C157.168 121.851 157.527 122.211 157.971 122.211Z" fill="#535461"/>
<path d="M160.78 122.211C161.223 122.211 161.583 121.851 161.583 121.408C161.583 120.965 161.223 120.605 160.78 120.605C160.337 120.605 159.977 120.965 159.977 121.408C159.977 121.851 160.337 122.211 160.78 122.211Z" fill="#535461"/>
<path d="M163.09 122.18C163.525 122.18 163.878 121.827 163.878 121.392C163.878 120.956 163.525 120.603 163.09 120.603C162.654 120.603 162.301 120.956 162.301 121.392C162.301 121.827 162.654 122.18 163.09 122.18Z" fill="#535461"/>
<path d="M128.173 95.0258C127.801 95.0262 127.446 95.1738 127.183 95.4363C126.921 95.6987 126.773 96.0546 126.773 96.4258V100.64C126.773 101.011 126.921 101.367 127.183 101.629C127.446 101.892 127.801 102.039 128.173 102.04H129.176C129.547 102.039 129.903 101.892 130.165 101.629C130.428 101.367 130.576 101.011 130.576 100.64V96.4258C130.576 96.0546 130.428 95.6987 130.165 95.4363C129.903 95.1738 129.547 95.0262 129.176 95.0258H128.173Z" fill="#535461"/>
<path d="M186.765 95.0258C186.394 95.0262 186.038 95.1738 185.776 95.4363C185.513 95.6987 185.366 96.0546 185.365 96.4258V100.64C185.366 101.011 185.513 101.367 185.776 101.629C186.038 101.892 186.394 102.039 186.765 102.04H187.769C188.14 102.039 188.496 101.892 188.758 101.629C189.021 101.367 189.168 101.011 189.169 100.64V96.4258C189.168 96.0546 189.021 95.6987 188.758 95.4363C188.496 95.1738 188.14 95.0262 187.769 95.0258H186.765Z" fill="#535461"/>
<path d="M203.52 107.161C206.18 107.161 208.336 105.005 208.336 102.345C208.336 99.6855 206.18 97.5294 203.52 97.5294C200.861 97.5294 198.705 99.6855 198.705 102.345C198.705 105.005 200.861 107.161 203.52 107.161Z" fill="#E6E6E6"/>
<path d="M193.287 117.395C195.946 117.395 198.103 115.239 198.103 112.579C198.103 109.919 195.946 107.763 193.287 107.763C190.627 107.763 188.471 109.919 188.471 112.579C188.471 115.239 190.627 117.395 193.287 117.395Z" fill="#E6E6E6"/>
<path d="M214.155 116.793C216.815 116.793 218.971 114.637 218.971 111.977C218.971 109.317 216.815 107.161 214.155 107.161C211.496 107.161 209.339 109.317 209.339 111.977C209.339 114.637 211.496 116.793 214.155 116.793Z" fill="#E6E6E6"/>
<path d="M204.323 127.428C206.983 127.428 209.139 125.272 209.139 122.612C209.139 119.952 206.983 117.796 204.323 117.796C201.663 117.796 199.507 119.952 199.507 122.612C199.507 125.272 201.663 127.428 204.323 127.428Z" fill="#E6E6E6"/>
<path d="M137.253 92.2166C136.176 92.2178 135.145 92.6458 134.384 93.4067C133.623 94.1676 133.195 95.1993 133.194 96.2754V114.234C133.195 115.31 133.623 116.342 134.384 117.103C135.145 117.864 136.176 118.292 137.253 118.293H178.488C179.564 118.292 180.596 117.864 181.357 117.103C182.118 116.342 182.546 115.31 182.547 114.234V96.2754C182.546 95.1993 182.118 94.1676 181.357 93.4067C180.596 92.6458 179.564 92.2178 178.488 92.2166H137.253Z" fill="#535461"/>
<path d="M206.792 104.552H200.261L203.414 99.1479L206.792 104.552ZM200.96 104.151H206.068L203.426 99.9241L200.96 104.151Z" fill="#535461"/>
<path d="M195.996 114.987H190.578V110.171H195.996V114.987ZM190.979 114.585H195.594V110.572H190.979V114.585Z" fill="#535461"/>
<path d="M214.155 114.987C213.56 114.987 212.978 114.81 212.483 114.48C211.988 114.149 211.602 113.679 211.375 113.129C211.147 112.579 211.087 111.974 211.203 111.39C211.319 110.806 211.606 110.27 212.027 109.849C212.448 109.428 212.984 109.141 213.568 109.025C214.152 108.909 214.757 108.968 215.307 109.196C215.857 109.424 216.327 109.81 216.658 110.305C216.989 110.8 217.165 111.382 217.165 111.977C217.164 112.775 216.847 113.54 216.283 114.104C215.718 114.668 214.953 114.986 214.155 114.987ZM214.155 109.368C213.639 109.368 213.135 109.521 212.706 109.808C212.277 110.095 211.943 110.502 211.745 110.979C211.548 111.455 211.496 111.98 211.597 112.486C211.698 112.992 211.946 113.457 212.311 113.821C212.676 114.186 213.14 114.435 213.646 114.535C214.152 114.636 214.677 114.584 215.154 114.387C215.63 114.189 216.038 113.855 216.324 113.426C216.611 112.997 216.764 112.493 216.764 111.977C216.763 111.285 216.488 110.622 215.999 110.133C215.51 109.644 214.847 109.369 214.155 109.368Z" fill="#535461"/>
<path d="M202.157 120.213L201.874 120.496L206.388 125.011L206.672 124.727L202.157 120.213Z" fill="#535461"/>
<path d="M206.492 120.209L201.877 124.624L202.154 124.914L206.769 120.499L206.492 120.209Z" fill="#535461"/>
<path d="M42.6534 46.3642C31.6974 49.3847 19.7001 51.6585 15.4012 48.131C17.7549 44.2127 19.1124 40.3507 19.2276 36.5588C19.2535 34.8239 19.9562 33.1677 21.1858 31.9434C21.9999 31.157 22.9824 30.5665 24.0589 30.2167C25.1353 29.8669 26.2774 29.767 27.3982 29.9247L30.2415 30.3237C30.3372 30.3372 30.4325 30.3524 30.5272 30.3695C31.8919 30.628 33.1415 31.3075 34.1004 32.3124C35.0592 33.3174 35.6794 34.5974 35.8736 35.9728C36.4727 40.0845 38.4871 43.644 42.6534 46.3642Z" fill="#2F2E41"/>
<path d="M53.2218 85.3726L57.481 86.2509C57.8063 86.3179 58.1127 86.4566 58.3777 86.6568C58.6427 86.8571 58.8599 87.1138 59.0133 87.4084C59.1668 87.703 59.2527 88.0281 59.2649 88.36C59.277 88.6919 59.2151 89.0224 59.0836 89.3275C58.9565 89.6222 58.7675 89.8862 58.5294 90.1014C58.2913 90.3167 58.0096 90.4782 57.7036 90.5749C57.3975 90.6717 57.0742 90.7015 56.7556 90.6622C56.4371 90.6229 56.1307 90.5156 55.8573 90.3474L49.342 86.3403L38.2758 60.3255L44.0075 58.6676L53.2218 85.3726Z" fill="#A0616A"/>
<path d="M22.8802 119.509L19.6551 120.447L17.214 115.405L19.6964 114.112L22.8802 119.509Z" fill="#A0616A"/>
<path d="M21.2415 141.11L17.2845 140.062L17.904 133.264L21.3093 133.474L21.2415 141.11Z" fill="#A0616A"/>
<path d="M21.6541 114.796L17.4632 117.554L1.34437 99.3217C0.994741 98.9262 0.736554 98.4585 0.588184 97.952C0.439814 97.4454 0.404909 96.9123 0.485945 96.3907C0.566982 95.8691 0.761971 95.3717 1.05704 94.934C1.35211 94.4963 1.74002 94.129 2.19316 93.8583L22.2732 81.8599L25.3487 90.6948L14.893 100.507L21.6541 114.796Z" fill="#2F2E41"/>
<path d="M25.1836 124.34C25.1731 124.354 25.1625 124.367 25.152 124.381C24.8841 125.949 24.4137 127.38 23.3631 128.415C23.0517 129.118 22.4924 129.681 21.7921 129.997C21.0918 130.313 20.2996 130.361 19.5666 130.13C18.8754 129.912 18.2813 129.461 17.8859 128.854C17.4904 128.247 17.3183 127.521 17.3988 126.801L18.182 119.801C20.0605 119.369 21.4933 118.301 22.2185 116.222L24.0442 117.466C24.5845 117.831 25.0448 118.302 25.3969 118.851C25.749 119.4 25.9855 120.014 26.0922 120.658C26.1988 121.301 26.1732 121.959 26.017 122.592C25.8608 123.225 25.5772 123.82 25.1836 124.34Z" fill="#2F2E41"/>
<path d="M27.1703 44.8652C30.7328 44.8652 33.6208 41.9772 33.6208 38.4147C33.6208 34.8522 30.7328 31.9642 27.1703 31.9642C23.6078 31.9642 20.7198 34.8522 20.7198 38.4147C20.7198 41.9772 23.6078 44.8652 27.1703 44.8652Z" fill="#A0616A"/>
<path d="M32.7565 48.7265L22.5873 57.1486L21.7953 53.6818L23.5703 50.9761C24.0628 48.3215 23.7448 45.3942 22.8984 42.2891L29.5331 42.2952C29.8195 44.8044 30.7964 46.9935 32.7565 48.7265Z" fill="#A0616A"/>
<path d="M35.6195 70.8184L21.8911 75.0003L20.823 70.1175C18.2502 66.6631 17.1319 63.5101 18.815 60.9377L17.968 57.0654C20.3978 55.1524 22.3085 53.195 23.3577 51.1641L31.8043 47.8636L38.0137 48.2457L39.8473 54.3904L35.6195 70.8184Z" fill="#6C63FF"/>
<path d="M45.3726 59.3548C42.4462 59.3237 39.5823 60.2013 37.1756 61.8663L38.0137 48.2457C38.8643 48.3593 39.6708 48.6924 40.3536 49.2122C41.0365 49.7321 41.5722 50.4207 41.9082 51.2105L45.3726 59.3548Z" fill="#6C63FF"/>
<path d="M21.6112 135.101L17.2538 134.028L17.8952 97.0037L23.7463 90.5962L22.4366 82.4731L21.5891 73.3732L35.8815 69.8292C40.7123 78.6008 43.6322 86.576 39.3701 91.5575L21.6112 135.101Z" fill="#2F2E41"/>
<path d="M20.6104 147.601C20.5908 147.609 20.5713 147.617 20.5517 147.624C19.2864 149.093 17.8962 150.291 16.1484 150.713C15.3818 151.25 14.4439 151.487 13.514 151.377C12.584 151.267 11.7271 150.818 11.1069 150.117C10.5219 149.455 10.185 148.611 10.1538 147.728C10.1226 146.846 10.399 145.98 10.9357 145.278L16.1525 138.462C18.3853 139.192 20.5527 138.977 22.6161 137.262L23.7409 139.708C24.0756 140.429 24.2599 141.21 24.2827 142.004C24.3054 142.799 24.166 143.589 23.8731 144.328C23.5801 145.067 23.1397 145.738 22.5788 146.301C22.0178 146.863 21.348 147.306 20.6104 147.601Z" fill="#2F2E41"/>
<path d="M4.69281 89.826L0.86817 93.1006C0.550788 93.3723 0.307143 93.7198 0.159823 94.1108C0.0125032 94.5018 -0.0337251 94.9236 0.0254225 95.3372C0.0845701 95.7509 0.247181 96.1428 0.498179 96.4769C0.749177 96.8109 1.08044 97.0761 1.46126 97.248C2.03455 97.5068 2.68471 97.5383 3.2803 97.336C3.87589 97.1338 4.37248 96.713 4.66969 96.1586L7.43543 91.0001L20.1191 67.8541L15.3487 66.9574L4.69281 89.826Z" fill="#A0616A"/>
<path d="M20.8833 68.5043C18.4059 67.7564 16.0853 67.316 14.2856 67.8973C14.6629 63.2288 15.4404 59.0584 17.968 57.0654L21.5611 57.4875L20.8833 68.5043Z" fill="#6C63FF"/>
<path d="M34.3713 36.9189L20.5749 36.0701L20.7447 33.3108C25.5607 30.0634 30.1595 30.3464 34.5411 34.1597L34.3713 36.9189Z" fill="#2F2E41"/>
</g>
<defs>
<clipPath id="clip0">
<rect width="269.93" height="184.644" fill="white"/>
</clipPath>
</defs>
</svg>
